HIERARCHY
ROOT hip
{
  OFFSET 0 0 0
  CHANNELS 6 Xposition Yposition Zposition Zrotation Yrotation Xrotation
  JOINT abdomen
  {
    OFFSET 0 20.6881 -0.73152
    CHANNELS 3 Zrotation Xrotation Yrotation
    JOINT chest
    {
      OFFSET 0 11.7043 -0.48768
      CHANNELS 3 Zrotation Xrotation Yrotation
      JOINT neck
      {
        OFFSET 0 22.1894 -2.19456
        CHANNELS 3 Zrotation Xrotation Yrotation
        JOINT head
        {
          OFFSET -0.24384 7.07133 1.2192
          CHANNELS 3 Zrotation Xrotation Yrotation
          JOINT leftEye
          {
            OFFSET 4.14528 8.04674 8.04672
            CHANNELS 3 Zrotation Xrotation Yrotation
            End Site
            {
              OFFSET 1 0 0
            }
          }
          JOINT rightEye
          {
            OFFSET -3.6576 8.04674 8.04672
            CHANNELS 3 Zrotation Xrotation Yrotation
            End Site
            {
              OFFSET 1 0 0
            }
          }
        }
      }
      JOINT rCollar
      {
        OFFSET -2.68224 19.2634 -4.8768
        CHANNELS 3 Zrotation Xrotation Yrotation
        JOINT rShldr
        {
          OFFSET -8.77824 -1.95073 1.46304
          CHANNELS 3 Zrotation Xrotation Yrotation
          JOINT rForeArm
          {
            OFFSET -28.1742 -1.7115 0.48768
            CHANNELS 3 Zrotation Xrotation Yrotation
            JOINT rHand
            {
              OFFSET -22.5879 0.773209 7.07136
              CHANNELS 3 Zrotation Xrotation Yrotation
              JOINT rThumb1
              {
                OFFSET -1.2192 -0.487915 3.41376
                CHANNELS 3 Zrotation Xrotation Yrotation
                JOINT rThumb2
                {
                  OFFSET -3.37035 -0.52449 3.41376
                  CHANNELS 3 Zrotation Xrotation Yrotation
                  End Site
                  {
                    OFFSET -1.78271 -1.18214 1.43049
                  }
                }
              }
              JOINT rIndex1
              {
                OFFSET -7.75947 0.938293 5.60832
                CHANNELS 3 Zrotation Xrotation Yrotation
                JOINT rIndex2
                {
                  OFFSET -2.54057 -0.884171 1.56538
                  CHANNELS 3 Zrotation Xrotation Yrotation
                  End Site
                  {
                    OFFSET -1.62519 -0.234802 1.16502
                  }
                }
              }
              JOINT rMid1
              {
                OFFSET -8.24714 1.18213 3.41376
                CHANNELS 3 Zrotation Xrotation Yrotation
                JOINT rMid2
                {
                  OFFSET -3.10165 -0.590103 1.0647
                  CHANNELS 3 Zrotation Xrotation Yrotation
                  End Site
                  {
                    OFFSET -2.48547 -0.328903 0.83742
                  }
                }
              }
              JOINT rRing1
              {
                OFFSET -8.82822 0.546677 1.51678
                CHANNELS 3 Zrotation Xrotation Yrotation
                JOINT rRing2
                {
                  OFFSET -2.60934 -0.819778 -0.0198488
                  CHANNELS 3 Zrotation Xrotation Yrotation
                  End Site
                  {
                    OFFSET -2.33842 -0.294052 0.168128
                  }
                }
              }
              JOINT rPinky1
              {
                OFFSET -8.27202 -0.0477905 -0.4584
                CHANNELS 3 Zrotation Xrotation Yrotation
                JOINT rPinky2
                {
                  OFFSET -1.82734 -0.647385 -0.700984
                  CHANNELS 3 Zrotation Xrotation Yrotation
                  End Site
                  {
                    OFFSET -1.69225 -0.51767 -0.607171
                  }
                }
              }
            }
          }
        }
      }
      JOINT lCollar
      {
        OFFSET 2.68224 19.2634 -4.8768
        CHANNELS 3 Zrotation Xrotation Yrotation
        JOINT lShldr
        {
          OFFSET 8.77824 -1.95073 1.46304
          CHANNELS 3 Zrotation Xrotation Yrotation
          JOINT lForeArm
          {
            OFFSET 28.1742 -1.7115 0.48768
            CHANNELS 3 Zrotation Xrotation Yrotation
            JOINT lHand
            {
              OFFSET 22.5879 0.773209 7.07136
              CHANNELS 3 Zrotation Xrotation Yrotation
              JOINT lThumb1
              {
                OFFSET 1.2192 -0.487915 3.41376
                CHANNELS 3 Zrotation Xrotation Yrotation
                JOINT lThumb2
                {
                  OFFSET 3.37035 -0.52449 3.41376
                  CHANNELS 3 Zrotation Xrotation Yrotation
                  End Site
                  {
                    OFFSET 1.78271 -1.18214 1.43049
                  }
                }
              }
              JOINT lIndex1
              {
                OFFSET 7.75947 0.938293 5.60832
                CHANNELS 3 Zrotation Xrotation Yrotation
                JOINT lIndex2
                {
                  OFFSET 2.54057 -0.884171 1.56538
                  CHANNELS 3 Zrotation Xrotation Yrotation
                  End Site
                  {
                    OFFSET 1.62519 -0.234802 1.16502
                  }
                }
              }
              JOINT lMid1
              {
                OFFSET 8.24714 1.18213 3.41376
                CHANNELS 3 Zrotation Xrotation Yrotation
                JOINT lMid2
                {
                  OFFSET 3.10165 -0.590103 1.0647
                  CHANNELS 3 Zrotation Xrotation Yrotation
                  End Site
                  {
                    OFFSET 2.48547 -0.328903 0.83742
                  }
                }
              }
              JOINT lRing1
              {
                OFFSET 8.82822 0.546677 1.51678
                CHANNELS 3 Zrotation Xrotation Yrotation
                JOINT lRing2
                {
                  OFFSET 2.60934 -0.819778 -0.0198488
                  CHANNELS 3 Zrotation Xrotation Yrotation
                  End Site
                  {
                    OFFSET 2.33842 -0.294052 0.168128
                  }
                }
              }
              JOINT lPinky1
              {
                OFFSET 8.27202 -0.0477905 -0.4584
                CHANNELS 3 Zrotation Xrotation Yrotation
                JOINT lPinky2
                {
                  OFFSET 1.82734 -0.647385 -0.700984
                  CHANNELS 3 Zrotation Xrotation Yrotation
                  End Site
                  {
                    OFFSET 1.69225 -0.51767 -0.607171
                  }
                }
              }
            }
          }
        }
      }
    }
  }
  JOINT rButtock
  {
    OFFSET -8.77824 4.35084 1.2192
    CHANNELS 3 Zrotation Xrotation Yrotation
    JOINT rThigh
    {
      OFFSET 0 -1.70687 -2.19456
      CHANNELS 3 Zrotation Xrotation Yrotation
      JOINT rShin
      {
        OFFSET 0 -36.8199 0.73152
        CHANNELS 3 Zrotation Xrotation Yrotation
        JOINT rFoot
        {
          OFFSET 0.73152 -45.1104 -5.12064
          CHANNELS 3 Zrotation Xrotation Yrotation
          End Site
          {
            OFFSET -1.1221 -3.69964 12.103
          }
        }
      }
    }
  }
  JOINT lButtock
  {
    OFFSET 8.77824 4.35084 1.2192
    CHANNELS 3 Zrotation Xrotation Yrotation
    JOINT lThigh
    {
      OFFSET 0 -1.70687 -2.19456
      CHANNELS 3 Zrotation Xrotation Yrotation
      JOINT lShin
      {
        OFFSET 0 -36.8199 0.73152
        CHANNELS 3 Zrotation Xrotation Yrotation
        JOINT lFoot
        {
          OFFSET -0.73152 -45.1104 -5.12064
          CHANNELS 3 Zrotation Xrotation Yrotation
          End Site
          {
            OFFSET 1.1221 -3.69964 12.103
          }
        }
      }
    }
  }
}
MOTION
Frames:	4
Frame Time:	0.03333
-0.004799275108991772 62.42407678722466 0.11207753458609127 -3.342665910720825 -2.080009698867798 8.07093620300293 -2.387397527694702 14.582069396972656 3.828841209411621 2.7091751098632812 -9.711930274963379 1.2414685487747192 -4.976550579071045 14.41382122039795 -3.7945191860198975 8.975885391235352 -22.233816146850586 -5.50337028503418 -0.003985548857599497 0.021889589726924896 0.024414164945483208 0.038489583879709244 -0.025626493617892265 -0.002318513346835971 0.014582743868231773 0.02098686620593071 -0.002331212628632784 46.41231155395508 39.74165725708008 18.131006240844727 -25.50080108642578 -25.735334396362305 68.0851821899414 -1.5506774187088013 -10.083477973937988 -1.5265618562698364 -0.02710670605301857 -0.0038861518260091543 0.01458859071135521 0.023367855697870255 0.025087827816605568 0.027027813717722893 -0.0002380418445682153 -0.02578604780137539 -0.015052578411996365 7.7291765213012695 5.4603352546691895 0.390653520822525 -0.06984017789363861 0.04094715416431427 0.05311986804008484 2.9489481449127197 0.9603989720344543 0.09418217092752457 0.003406990086659789 -0.01693275198340416 -0.036559514701366425 10.318279266357422 0.7152300477027893 0.034382063895463943 0.019662369042634964 -0.009284245781600475 -0.016099829226732254 2.207660436630249 -0.7206833958625793 -0.15334323048591614 0.00029634442762471735 -0.005302385427057743 -0.012617066502571106 -54.72692108154297 40.603878021240234 -26.1262149810791 24.939451217651367 -23.66703987121582 -65.55374145507812 1.935117483139038 -14.403090476989746 2.0653772354125977 -0.012525275349617004 0.013579797931015491 0.011706573888659477 -0.055645596235990524 -0.04109307378530502 0.017047440633177757 0.028226502239704132 -0.023876400664448738 0.0439310222864151 -7.665950298309326 5.428006649017334 -0.42336928844451904 0.03628699108958244 0.004695919342339039 -0.007803642190992832 -2.890038013458252 0.9288161396980286 -0.13423371315002441 -0.02479339949786663 0.022968243807554245 -0.003781089559197426 -10.2633056640625 0.7753766179084778 -0.012293810024857521 -0.05232137814164162 0.010905260220170021 -0.009600551798939705 -2.2484183311462402 -0.7377184629440308 0.19114242494106293 0.004062201827764511 0.057949163019657135 0.00285133789293468 -24.686555862426758 -42.04140090942383 -18.548023223876953 -1.2788052558898926 65.14823150634766 2.3905229568481445 -4.670993328094482 -11.565225601196289 -9.86844253540039 0.0267900712788105 0.017447397112846375 0.039634108543395996 29.410140991210938 -42.297359466552734 20.330062866210938 1.3991403579711914 65.76008605957031 -2.4483389854431152 4.939159870147705 -11.507577896118164 13.194718360900879
-0.0038646064097578397 62.3519090084543 0.2252752201960646 -3.4202704429626465 -2.144526958465576 8.04391860961914 -2.2832367420196533 14.478937149047852 3.762874126434326 2.627631664276123 -9.669549942016602 1.2007325887680054 -4.879985332489014 14.339466094970703 -3.825807809829712 8.822951316833496 -22.15680503845215 -5.507731914520264 0.02617473714053631 0.03518293797969818 0.0074064903892576694 0.05739092454314232 -0.03985200077295303 -0.007061631418764591 0.03498147800564766 0.038469333201646805 -0.0027095868717879057 46.2911262512207 39.63966369628906 18.48634910583496 -25.48802375793457 -25.65345001220703 68.0754623413086 -1.550781488418579 -10.109968185424805 -1.4941132068634033 -0.07551826536655426 -0.026819922029972076 0.053782057017087936 0.009028172120451927 0.04130422696471214 0.06123189628124237 0.014681141823530197 -0.02701031044125557 -0.0011710621183738112 7.692633628845215 5.454085826873779 0.384801983833313 -0.11145414412021637 0.04469824582338333 0.10491790622472763 2.955975294113159 0.957120954990387 0.08635395765304565 0.0002565184549894184 -0.040254004299640656 -0.0861874669790268 10.350095748901367 0.6779537796974182 0.028367776423692703 0.03132723644375801 -0.0025963447988033295 0.008455952629446983 2.2005319595336914 -0.7262427806854248 -0.12810222804546356 -0.031649667769670486 0.0024298657663166523 -0.029524117708206177 -54.63320541381836 40.70509338378906 -26.383039474487305 24.98460578918457 -23.773176193237305 -65.85013580322266 1.8918874263763428 -14.38858699798584 2.0422487258911133 -0.008802348747849464 0.007871725596487522 0.02937186323106289 -0.1046888679265976 -0.03681764751672745 0.005555060226470232 0.02156844362616539 -0.009150661528110504 0.04826023057103157 -7.641422271728516 5.4042463302612305 -0.4185090959072113 0.04183732718229294 -0.021992670372128487 0.008116237819194794 -2.901824951171875 0.8771129846572876 -0.1532629430294037 -0.0379444919526577 0.050114475190639496 0.019383786246180534 -10.243178367614746 0.8265353441238403 -0.019512025639414787 -0.08482031524181366 0.017757495865225792 -0.023246945813298225 -2.2550106048583984 -0.6973543167114258 0.19224892556667328 0.035579003393650055 0.1384911835193634 2.924439741036622e-06 -24.79265022277832 -42.17019271850586 -18.58780288696289 -1.2283401489257812 65.23107147216797 2.258303165435791 -4.6436543464660645 -11.285741806030273 -9.831680297851562 0.012396208010613918 0.01236195582896471 0.06527112424373627 29.258319854736328 -42.16570281982422 20.03584861755371 1.453721523284912 65.56421661376953 -2.4797096252441406 4.978277683258057 -11.235936164855957 13.178235054016113
0.12722337234888875 74.80000390288342 0.4507548658195536 -175.6793670654297 43.234771728515625 -173.91343688964844 -2.8096301555633545 10.464513778686523 4.281874656677246 2.602174997329712 -8.261399269104004 1.4510903358459473 -9.732534408569336 19.062623977661133 -14.792776107788086 13.913622856140137 -23.934541702270508 -26.746999740600586 0.24869704246520996 0.00301611190661788 -0.3311980664730072 0.06181000918149948 0.014425070956349373 0.04148700460791588 -0.17210528254508972 -0.03990286961197853 -0.16759607195854187 25.491117477416992 22.138872146606445 37.52731704711914 -22.116167068481445 -15.072361946105957 50.297245025634766 -0.2709212005138397 27.572933197021484 4.157093048095703 -0.1483306884765625 0.038511890918016434 -0.052172672003507614 -0.10113559663295746 0.43757545948028564 0.38446852564811707 0.04421126842498779 -0.02810833789408207 -0.0018037331756204367 7.635775566101074 5.330926895141602 0.44004788994789124 -0.20235009491443634 -0.06893684715032578 0.07660242170095444 3.300671100616455 0.7045560479164124 0.3550892174243927 -0.05475188419222832 -0.10242978483438492 -0.1397761106491089 10.561293601989746 0.8985912799835205 0.023662151768803596 0.3786255717277527 0.1120324432849884 0.12300179153680801 2.295680284500122 -0.39268866181373596 0.030795114114880562 -0.10410809516906738 -0.37955033779144287 -0.43113961815834045 -92.2159423828125 51.27739715576172 27.378379821777344 28.13588523864746 -42.22241973876953 -87.2646255493164 4.816400527954102 -47.23765563964844 9.325639724731445 0.022085167467594147 -0.12640295922756195 0.20774173736572266 -0.5211145281791687 0.3471081256866455 -0.11839505285024643 -0.029323454946279526 -0.04226993769407272 -0.16374032199382782 -7.48067569732666 5.393204689025879 -0.5504775047302246 0.3496364951133728 -0.21631719172000885 0.1350172758102417 -2.637946128845215 0.6436052322387695 -0.1226573958992958 0.1268477588891983 -0.02943449467420578 0.05922064185142517 -10.566287994384766 1.208484172821045 -0.2387237250804901 -0.43715205788612366 0.004131502937525511 -0.07001034170389175 -2.0226781368255615 -0.47459909319877625 0.1044590100646019 0.18058854341506958 0.3065659701824188 -0.04361835494637489 -15.582414627075195 -37.62015151977539 -19.1195068359375 -0.9291607737541199 56.11775207519531 0.5641460418701172 -7.203066825866699 -11.224610328674316 -11.270905494689941 0.17072509229183197 0.06927426904439926 -0.11181487888097763 14.268917083740234 -32.65058517456055 7.193041801452637 0.10237875580787659 54.171810150146484 -1.1952247619628906 5.136599063873291 -11.414896965026855 13.520355224609375
0.732534159945871 74.95093742316236 0.9666174960460489 -173.7061004638672 42.2711067199707 -171.17764282226562 -5.080169677734375 9.5805082321167 8.953123092651367 1.30018949508667 -8.078705787658691 3.0177183151245117 -9.916106224060059 18.545595169067383 -13.80573558807373 17.165727615356445 -27.71181869506836 -23.678272247314453 0.35391342639923096 0.14117150008678436 0.3699303865432739 0.3208988904953003 -0.14031745493412018 -0.10509854555130005 -0.5038319826126099 0.15229497849941254 -0.23512640595436096 20.71474266052246 24.71861457824707 39.11433410644531 -19.638771057128906 -11.486220359802246 41.78703689575195 -0.7923717498779297 31.983928680419922 4.241830825805664 0.06362703442573547 0.009184762835502625 0.0017616184195503592 -0.018145987764000893 0.45785173773765564 0.41386350989341736 -0.22321049869060516 0.0841485857963562 0.08934955298900604 7.350193500518799 5.322854995727539 0.35792607069015503 -0.1931874006986618 -0.31654778122901917 -0.03198515996336937 3.07053279876709 0.8669549226760864 0.1332978904247284 0.12859795987606049 -0.09122618287801743 -0.13226361572742462 10.270380020141602 0.850575864315033 0.3446449935436249 0.6216450929641724 -0.2280120700597763 -0.2963334321975708 2.2732229232788086 -0.7216147780418396 -0.6304391026496887 0.5420635938644409 -0.4637153148651123 -0.3015965521335602 -95.64854431152344 53.31839370727539 34.38469314575195 27.20201301574707 -42.639495849609375 -89.59656524658203 2.1777124404907227 -33.27312469482422 4.560502529144287 0.21975156664848328 0.09471732378005981 0.46853622794151306 0.25735312700271606 -0.17856597900390625 0.21531268954277039 0.22954872250556946 0.06785931438207626 -0.3232208490371704 -7.377457618713379 5.092272758483887 -0.6430012583732605 0.1377602219581604 -0.09418907761573792 -0.057605013251304626 -3.069624185562134 0.9425100684165955 -0.11182396113872528 0.053598590195178986 0.2049451321363449 -0.3912981450557709 -10.098898887634277 1.0187921524047852 0.02244013361632824 -0.31172966957092285 -0.16267652809619904 0.207008495926857 -1.9273438453674316 -0.6086863875389099 0.3384617865085602 0.15100210905075073 0.4706012010574341 0.07267733663320541 -12.624398231506348 -34.7327995300293 -21.928394317626953 -0.733686625957489 59.729393005371094 0.272704154253006 -8.472271919250488 -13.633764266967773 -20.112838745117188 0.30777063965797424 0.2893867790699005 -0.16215652227401733 14.310193061828613 -35.972625732421875 5.646717548370361 1.5138483047485352 58.805850982666016 -2.2567853927612305 3.300649642944336 -7.735455513000488 14.567793846130371
